<?xml version="1.0"?>
<svg xmlns="http://www.w3.org/2000/svg" height="512px" viewBox="0 0 512 512" width="512px"><g><g id="_05-watch" data-name="05-watch"><path d="m280 116h-13.592l-14.528-101.7a12 12 0 0 0 -11.88-10.3h-96a12 12 0 0 0 -11.88 10.3l-14.528 101.7h-13.592a36.04 36.04 0 0 0 -36 36v60h-20a12 12 0 0 0 -12 12v64a12 12 0 0 0 12 12h20v60a36.04 36.04 0 0 0 36 36h13.592l14.528 101.7a12 12 0 0 0 11.88 10.3h96a12 12 0 0 0 11.88-10.3l14.528-101.7h13.592a36.04 36.04 0 0 0 36-36v-208a36.04 36.04 0 0 0 -36-36zm-125.593-88h75.186l12.571 88h-100.328zm-94.407 248v-40h8v40zm169.593 208h-75.186l-12.571-88h100.328zm62.407-124a12.013 12.013 0 0 1 -12 12h-176a12.013 12.013 0 0 1 -12-12v-208a12.013 12.013 0 0 1 12-12h176a12.013 12.013 0 0 1 12 12z" data-original="#000000" class="active-path" data-old_color="#000000" fill="#FFEE00"/><path d="m240.038 186.777c-10.851-7.822-29.137-10.941-48.038 2.714-18.9-13.654-37.186-10.537-48.038-2.714-16.449 11.855-20.946 35.341-10.695 55.845 13.119 26.238 50.457 51.529 52.04 52.593a12 12 0 0 0 13.386 0c1.583-1.064 38.921-26.355 52.04-52.593 10.251-20.504 5.754-43.99-10.695-55.845zm-10.771 45.111c-6.953 13.9-25.561 29.792-37.267 38.6-11.706-8.811-30.314-24.7-37.267-38.6-5.62-11.24-2.613-21.407 3.261-25.641a11.931 11.931 0 0 1 7.116-2.256c5.541 0 12 3.345 18.4 9.749a12 12 0 0 0 16.97 0c9.42-9.421 18.958-12.22 25.521-7.493 5.879 4.234 8.886 14.401 3.266 25.641z" data-original="#000000" class="active-path" data-old_color="#000000" fill="#FFEE00"/><circle cx="192" cy="332" r="12" data-original="#000000" class="active-path" data-old_color="#000000" fill="#FFEE00"/><circle cx="236" cy="332" r="12" data-original="#000000" class="active-path" data-old_color="#000000" fill="#FFEE00"/><circle cx="148" cy="332" r="12" data-original="#000000" class="active-path" data-old_color="#000000" fill="#FFEE00"/><path d="m376.485 213.574a12 12 0 0 0 -16.97 16.97 36.042 36.042 0 0 1 0 50.912 12 12 0 1 0 16.97 16.97 60.067 60.067 0 0 0 0-84.852z" data-original="#000000" class="active-path" data-old_color="#000000" fill="#FFEE00"/><path d="m410.427 179.632a12 12 0 0 0 -16.971 16.968 84.094 84.094 0 0 1 0 118.794 12 12 0 0 0 16.971 16.971 108 108 0 0 0 0-152.736z" data-original="#000000" class="active-path" data-old_color="#000000" fill="#FFEE00"/><path d="m444.367 145.691a12 12 0 0 0 -16.967 16.971 132 132 0 0 1 0 186.676 12 12 0 0 0 16.971 16.971 156 156 0 0 0 0-220.618z" data-original="#000000" class="active-path" data-old_color="#000000" fill="#FFEE00"/></g></g> </svg>
